<svg width="24" height="24" viewBox="0 0 24 24" fill="none" xmlns="http://www.w3.org/2000/svg">
<g clip-path="url(#clip0_212_2831)">
<path d="M20.1732 9.23788C19.8842 9.23888 19.5812 9.19988 19.3102 9.27288C19.1402 9.31888 18.9042 9.53688 18.9002 9.68188C18.8972 9.84488 19.0972 10.0469 19.2572 10.1659C19.3722 10.2509 19.5672 10.2229 19.7252 10.2519C21.3132 10.5499 21.8062 11.1379 21.1922 12.6639C20.5942 14.1529 19.6002 15.4809 18.6542 17.0939C16.6102 14.3199 14.7812 11.8359 12.9252 9.31688C14.1552 8.64988 15.3422 8.13388 16.3882 7.40988C19.3032 5.39588 19.2932 2.53588 16.4342 0.453879C16.3592 0.399879 16.2982 0.326879 16.1332 0.168879C18.8062 0.168879 21.3722 0.168879 24.0002 0.168879C24.0002 3.15588 24.0002 6.11588 24.0002 9.23688C22.7192 9.23688 21.4452 9.23688 20.1732 9.23788ZM12.4112 7.95988C12.2572 8.00188 12.0262 7.94188 11.8892 7.84388C10.9032 7.13688 9.34623 4.06888 9.33823 2.77088C9.28823 2.03088 9.47523 1.29788 10.2932 0.916879C11.1782 0.503879 12.0502 0.616879 12.8532 1.15588C14.1882 2.05188 15.0812 4.56188 14.5822 6.09088C14.2412 7.13388 13.4192 7.68088 12.4112 7.95988ZM4.87023 4.90888C4.74823 6.98288 5.82223 8.61188 6.77923 10.3909C4.28123 11.6929 1.74323 12.8509 0.112226 15.6189C0.0682257 15.0209 0.0312257 14.7449 0.0312257 14.4689C0.0272257 10.0309 0.0502257 5.59388 0.00922567 1.15688C0.000225667 0.289879 0.263226 0.0508793 1.10223 0.0698793C3.38223 0.122879 5.66423 0.0878793 7.94523 0.0878793C6.20123 1.28988 5.00023 2.70588 4.87023 4.90888ZM2.19623 23.8459C-0.048774 24.0879 -0.233774 23.9099 0.169226 21.9699C0.831226 22.5839 1.47023 23.1739 2.19623 23.8459ZM7.04823 11.7649C7.23623 11.6869 7.64223 11.7749 7.75223 11.9269C9.86123 14.8629 11.9412 17.8209 14.0582 20.8179C11.5822 22.8029 9.19523 22.6669 7.13223 20.4509C5.97023 19.2029 5.09723 17.7809 4.76623 16.0679C4.38223 14.0749 5.17823 12.5379 7.04823 11.7649ZM15.3462 22.2109C15.9262 22.6939 16.4612 23.2329 17.1382 23.8689C15.3082 23.8689 13.6442 23.8689 11.7942 23.8689C12.8582 23.2189 13.7612 22.6439 14.6912 22.1209C14.8502 22.0329 15.1972 22.0869 15.3462 22.2109ZM23.8452 11.9309C23.8552 11.9169 23.9012 11.9319 23.9962 11.9379C23.9962 15.0179 23.9962 18.1029 23.9962 21.4269C23.3982 21.2659 22.7292 21.2659 22.3152 20.9389C21.3642 20.1859 20.5232 19.2869 19.6762 18.4099C19.5582 18.2879 19.5562 17.8829 19.6662 17.7279C21.0402 15.7809 22.4462 13.8579 23.8452 11.9309Z" fill="#F2E1CB"/>
</g>
<defs>
<clipPath id="clip0_212_2831">
<rect width="24" height="24" fill="white"/>
</clipPath>
</defs>
</svg>
