<svg width="36" height="36" viewBox="0 0 36 36" fill="none" xmlns="http://www.w3.org/2000/svg">
<g clip-path="url(#clip0_214_2833)">
<path d="M8.013 15.466C9.13641 15.2372 10.2958 15.2512 11.4133 15.5069C12.5309 15.7627 13.5809 16.2544 14.493 16.949C15.4213 17.6481 16.1785 18.5491 16.7071 19.584C17.2357 20.6189 17.522 21.7604 17.5443 22.9223C17.5665 24.0842 17.3242 25.2359 16.8356 26.2902C16.3469 27.3446 15.6249 28.274 14.724 29.008C13.2531 30.2331 11.3931 30.8927 9.479 30.868C7.95548 30.8564 6.45964 30.4598 5.13054 29.715C3.80144 28.9702 2.68224 27.9014 1.877 26.608C0.68077 24.4808 0.0355278 22.0882 0 19.648C0.309 12.997 3.214 8.36003 8.768 5.88303C9.4179 5.63541 10.0895 5.44894 10.774 5.32603L11.751 5.18903C11.9912 5.12331 12.2437 5.11643 12.4871 5.16897C12.7305 5.22151 12.9576 5.33191 13.1493 5.49084C13.341 5.64977 13.4916 5.85254 13.5883 6.08199C13.6851 6.31145 13.7251 6.56083 13.705 6.80903V8.43703C13.7095 8.84483 13.5588 9.23909 13.2834 9.53991C13.0081 9.84072 12.6286 10.0256 12.222 10.057C9.239 10.606 8.005 12.054 7.671 15.508L8.013 15.466ZM12.025 6.55103C5.442 7.52003 1.954 13.776 1.723 19.725C1.65116 21.8457 2.19582 23.9416 3.291 25.759C3.96157 26.8161 4.88624 27.6885 5.98061 28.2964C7.07498 28.9042 8.30418 29.2283 9.556 29.239C11.0655 29.2381 12.5292 28.7208 13.704 27.773C14.4101 27.1891 14.9745 26.4525 15.3546 25.6188C15.7347 24.7851 15.9206 23.876 15.8984 22.9599C15.8762 22.0439 15.6463 21.1449 15.2262 20.3306C14.8061 19.5163 14.2066 18.808 13.473 18.259C12.738 17.6914 11.8871 17.2926 10.9805 17.0911C10.074 16.8896 9.13423 16.8902 8.228 17.093C8.051 17.151 7.86512 17.1771 7.679 17.17C7.25746 17.1788 6.84923 17.0223 6.54162 16.7339C6.23401 16.4455 6.05146 16.0483 6.033 15.627C5.99425 15.3715 5.99425 15.1116 6.033 14.856C6.427 11.53 7.601 9.20803 11.827 8.43603C11.99 8.43603 11.99 8.35903 11.99 8.35903L12.025 6.55103ZM26.466 15.464C27.5894 15.2348 28.7488 15.2485 29.8665 15.5043C30.9841 15.76 32.0341 16.252 32.946 16.947C33.8743 17.6461 34.6315 18.5471 35.1601 19.582C35.6887 20.6169 35.975 21.7584 35.9973 22.9203C36.0195 24.0822 35.7772 25.2339 35.2886 26.2882C34.7999 27.3426 34.0779 28.272 33.177 29.006C31.7075 30.2336 29.8466 30.8935 27.932 30.866C26.4096 30.8545 24.9148 30.4578 23.587 29.7129C22.2592 28.968 21.1415 27.8992 20.338 26.606C19.1424 24.4781 18.4944 22.0864 18.452 19.646C18.769 12.995 21.666 8.35803 27.229 5.88103C27.8758 5.63345 28.5444 5.44697 29.226 5.32403L30.203 5.18703C30.4432 5.12131 30.6957 5.11443 30.9391 5.16697C31.1825 5.21951 31.4096 5.32991 31.6013 5.48884C31.793 5.64777 31.9436 5.85054 32.0403 6.07999C32.1371 6.30945 32.1771 6.55883 32.157 6.80703V8.43503C32.1615 8.84283 32.0108 9.23709 31.7354 9.53791C31.4601 9.83872 31.0806 10.0236 30.674 10.055C27.7 10.604 26.457 12.052 26.123 15.506L26.466 15.464ZM30.486 6.54903C23.895 7.51803 20.415 13.774 20.175 19.723C20.1032 21.8437 20.6478 23.9396 21.743 25.757C22.4136 26.8141 23.3382 27.6865 24.4326 28.2944C25.527 28.9022 26.7562 29.2263 28.008 29.237C29.5175 29.2361 30.9812 28.7188 32.156 27.771C32.8621 27.1871 33.4265 26.4505 33.8066 25.6168C34.1867 24.7831 34.3726 23.874 34.3504 22.9579C34.3282 22.0419 34.0983 21.1429 33.6782 20.3286C33.2581 19.5143 32.6586 18.806 31.925 18.257C31.19 17.6894 30.3391 17.2906 29.4325 17.0891C28.526 16.8876 27.5862 16.8882 26.68 17.091C26.503 17.149 26.3171 17.1751 26.131 17.168C25.7095 17.1768 25.3012 17.0203 24.9936 16.7319C24.686 16.4435 24.5035 16.0463 24.485 15.625C24.4462 15.3695 24.4462 15.1096 24.485 14.854C24.879 11.528 26.053 9.20603 30.279 8.43403C30.433 8.43403 30.433 8.35703 30.433 8.35703" fill="#F2E1CC"/>
</g>
<defs>
<clipPath id="clip0_214_2833">
<rect width="36" height="36" fill="white"/>
</clipPath>
</defs>
</svg>
