<svg xmlns="http://www.w3.org/2000/svg">
	<defs>
		<symbol id="phone" viewBox="0 0 18 18">
			<g fill-rule="evenodd">
				<g>
					<path d="M16.23 12.26L13.69 11.97C13.08 11.9 12.48 12.11 12.05 12.54L10.21 14.38C7.38001 12.94 5.06001 10.63 3.62001 7.79001L5.47001 5.94001C5.90001 5.51001 6.11001 4.91001 6.04001 4.30001L5.75001 1.78001C5.63001 0.77001 4.78001 0.0100098 3.76001 0.0100098H2.03001C0.90001 0.0100098 -0.0399899 0.95001 0.0300101 2.08001C0.56001 10.62 7.39001 17.44 15.92 17.97C17.05 18.04 17.99 17.1 17.99 15.97V14.24C18 13.23 17.24 12.38 16.23 12.26Z"/>
				</g>
			</g>
		</symbol>
		<symbol id="facebook" viewBox="0 0 18 36">
			<g fill-rule="evenodd">
				<g>
					<path d="M11.7615 0C5.56252 0 4.15152 4.601 4.15152 7.544V11.658H0.561523V18.016H4.14352C4.14352 26.175 4.14352 36 4.14352 36H11.6835C11.6835 36 11.6835 26.076 11.6835 18.016H16.7695L17.4375 11.658H11.6915V7.924C11.6915 6.517 12.6275 6.191 13.2865 6.191H17.3445V0.024L11.7615 0Z"/>
				</g>
			</g>
		</symbol>
		<symbol id="linkedin" viewBox="0 0 36 34">
			<g fill-rule="evenodd">
				<g>
					<path d="M4.286 0.6875C1.695 0.6875 0 2.3465 0 4.5355C0 6.6835 1.647 8.3775 4.187 8.3775H4.238C6.875 8.3775 8.517 6.6765 8.517 4.5285C8.467 2.3415 6.875 0.6875 4.286 0.6875ZM27.096 10.9355C23.076 10.9355 20.557 13.1055 20.091 14.6265V11.1485H12.208C12.311 12.9955 12.208 33.3115 12.208 33.3115H20.091V21.3185C20.091 20.6525 20.06 19.9855 20.262 19.5075C20.805 18.1755 21.969 16.7915 24.063 16.7915C26.799 16.7915 28.044 18.8415 28.044 21.8425V33.3115H36V20.9885C36 14.1245 32.082 10.9355 27.096 10.9355ZM0.908 11.1495V33.3115H7.924V11.1495H0.908Z"/>
				</g>
			</g>
		</symbol>
		<symbol id="youtube" viewBox="0 0 36 28">
			<g fill-rule="evenodd">
				<g>
					<path d="M32.624 26.373C27.4207 27.123 22.5457 27.498 17.999 27.498C15.9837 27.498 13.757 27.4043 11.319 27.217C8.88105 27.0297 6.94738 26.8423 5.51805 26.655L3.37305 26.374C2.74038 26.2567 2.18371 25.8173 1.70305 25.056C1.22238 24.2947 0.870714 23.3747 0.648047 22.296C0.42538 21.2173 0.26138 20.2097 0.156047 19.273C0.0507135 18.3363 -0.00195313 17.481 -0.00195312 16.707V11.293C-0.00195312 5.31633 1.12305 2.09367 3.37305 1.625C8.57638 0.875 13.4514 0.5 17.998 0.5C20.0134 0.5 22.24 0.593667 24.678 0.781C27.116 0.968333 29.0497 1.15567 30.479 1.343L32.624 1.624C33.304 1.718 33.884 2.14567 34.364 2.907C34.844 3.66833 35.1897 4.6 35.401 5.702C35.6124 6.804 35.7647 7.81167 35.858 8.725C35.9514 9.63833 35.9984 10.4937 35.999 11.291V16.705C35.999 17.549 35.964 18.4043 35.894 19.271C35.824 20.1377 35.6834 21.1337 35.472 22.259C35.2607 23.3843 34.909 24.3217 34.417 25.071C33.925 25.8203 33.3274 26.254 32.624 26.372V26.373ZM24.362 13.12L15.151 7.495C14.893 7.26033 14.553 7.196 14.131 7.302C13.709 7.408 13.498 7.578 13.498 7.812V20.187C13.498 20.445 13.709 20.6207 14.131 20.714C14.553 20.8073 14.893 20.737 15.151 20.503L24.362 14.878C24.62 14.6433 24.749 14.3503 24.749 13.999C24.749 13.6477 24.62 13.3547 24.362 13.12V13.12Z"/>
				</g>
			</g>
		</symbol>
		<symbol id="map" viewBox="0 0 28 36">
			<g fill-rule="evenodd">
				<g>
					<path d="M25.221 22.078C25.204 22.101 25.173 22.109 25.154 22.131L15.242 35.376C15.205 35.427 15.144 35.449 15.101 35.494C15.048 35.551 15.013 35.621 14.951 35.67C14.899 35.709 14.841 35.726 14.787 35.758C14.722 35.797 14.662 35.833 14.592 35.862C14.399 35.944 14.201 36 14 36C13.799 36 13.601 35.944 13.408 35.862C13.337 35.833 13.278 35.797 13.213 35.758C13.159 35.726 13.101 35.709 13.049 35.67C12.973 35.614 12.93 35.535 12.868 35.468C12.835 35.432 12.787 35.416 12.758 35.376L2.779 22.041C0.951 19.653 0 16.787 0 13.776C0 6.172 6.286 0.001 13.999 0H14C21.713 0 28 6.172 28 13.813C28 16.825 27.049 19.69 25.221 22.078ZM14 3.122C8.006 3.122 3.107 7.898 3.107 13.776C3.107 16.089 3.838 18.292 5.261 20.128C5.262 20.129 5.264 20.13 5.264 20.131L14 31.804L22.736 20.131C24.125 18.294 24.891 16.09 24.891 13.776C24.891 7.898 19.995 3.123 14 3.122ZM14 19.286C11.003 19.286 8.554 16.825 8.554 13.813C8.554 10.8 11.003 8.303 14 8.303C16.997 8.303 19.446 10.764 19.446 13.776C19.446 16.787 16.997 19.286 14 19.286ZM14 11.461C12.721 11.461 11.661 12.526 11.661 13.811C11.661 15.097 12.721 16.162 14 16.162C15.279 16.162 16.339 15.097 16.339 13.811C16.339 12.49 15.279 11.461 14 11.461Z"/>
				</g>
			</g>
		</symbol>
		<symbol id="play" viewBox="0 0 162 161">
			<g fill-rule="evenodd">
				<g>
					<path d="M4.79958 160.503C3.79958 161.303 2.39959 161.103 1.49959 160.103C1.09959 159.603 0.899585 159.003 0.999585 158.303V3.60257C0.799585 2.30257 1.69959 1.20258 2.89959 1.00258C3.59959 0.902575 4.19958 1.10258 4.79958 1.40258L159.5 79.1026C161.6 80.2026 161.6 81.9026 159.5 82.9026L4.79958 160.503Z"/>
				</g>
			</g>
		</symbol>
		<symbol id="play2" viewBox="0 0 36 36">
			<g fill-rule="evenodd">
				<g>
					<path d="M18 1.5C21.2634 1.5 24.4535 2.46771 27.1669 4.28075C29.8803 6.09379 31.9952 8.67074 33.244 11.6857C34.4929 14.7007 34.8196 18.0183 34.183 21.219C33.5463 24.4197 31.9748 27.3597 29.6673 29.6673C27.3597 31.9748 24.4197 33.5463 21.219 34.183C18.0183 34.8196 14.7007 34.4929 11.6857 33.244C8.67075 31.9952 6.0938 29.8803 4.28076 27.1669C2.46772 24.4535 1.50001 21.2634 1.50001 18C1.5053 13.6256 3.24539 9.43179 6.33859 6.33858C9.4318 3.24538 13.6256 1.50529 18 1.5V1.5ZM18 0C14.4399 0 10.9598 1.05568 7.99974 3.03355C5.03966 5.01141 2.73255 7.82263 1.37018 11.1117C0.00779915 14.4008 -0.348661 18.02 0.345873 21.5116C1.04041 25.0033 2.75474 28.2106 5.27209 30.7279C7.78943 33.2453 10.9967 34.9596 14.4884 35.6541C17.98 36.3487 21.5992 35.9922 24.8883 34.6298C28.1774 33.2675 30.9886 30.9603 32.9665 28.0003C34.9443 25.0402 36 21.5601 36 18C36 13.2261 34.1036 8.64773 30.7279 5.27208C27.3523 1.89642 22.7739 0 18 0V0ZM12.756 26.542C12.6215 26.5421 12.4893 26.5077 12.372 26.442C12.259 26.3755 12.1652 26.2806 12.1 26.1668C12.0347 26.053 12.0003 25.9242 12 25.793V10.2C11.9996 10.0679 12.0341 9.93797 12.1001 9.82347C12.166 9.70897 12.2611 9.61392 12.3755 9.54795C12.49 9.48197 12.6199 9.44742 12.7521 9.44778C12.8842 9.44814 13.0139 9.4834 13.128 9.55L26.628 17.35C26.7412 17.4166 26.8351 17.5116 26.9003 17.6256C26.9656 17.7396 26.9999 17.8687 26.9999 18C26.9999 18.1313 26.9656 18.2604 26.9003 18.3744C26.8351 18.4884 26.7412 18.5834 26.628 18.65L13.128 26.443C13.0117 26.5115 12.879 26.5474 12.744 26.547H12.756V26.542ZM13.5 11.502V24.492L24.744 17.996L13.5 11.5V11.502Z"/>
				</g>
			</g>
		</symbol>
		<symbol id="star" viewBox="0 0 24 24">
			<g fill-rule="evenodd">
				<g>
					<path d="M5.29453 23.025C5.07853 23.025 4.86453 22.959 4.68153 22.825C4.34153 22.578 4.18253 22.151 4.27753 21.742L5.92753 14.608L0.424533 9.81099C0.107533 9.53399 -0.0134673 9.09599 0.117533 8.69599C0.246533 8.29599 0.602533 8.01299 1.01853 7.97699L8.27053 7.35099L11.1045 0.62899C11.2665 0.24099 11.6455 -0.0100098 12.0645 -0.0100098C12.4845 -0.0100098 12.8635 0.24099 13.0265 0.62799L15.8595 7.35099L23.1115 7.97699C23.5295 8.01299 23.8845 8.29599 24.0145 8.69599C24.1435 9.09599 24.0225 9.53399 23.7065 9.81099L18.2035 14.608L19.8525 21.742C19.9475 22.151 19.7875 22.578 19.4485 22.825C19.1065 23.072 18.6515 23.09 18.2955 22.874L12.0645 19.093L5.83453 22.874C5.66853 22.974 5.48053 23.025 5.29453 23.025Z"/>
				</g>
			</g>
		</symbol>
		<symbol id="house" viewBox="0 0 36 34">
			<g fill-rule="evenodd">
				<g>
					<path d="M35.8155 18.9971L18.4905 1.03109C18.429 0.965964 18.3547 0.91417 18.2723 0.878908C18.1899 0.843647 18.1012 0.825668 18.0115 0.826085C17.9203 0.824098 17.8296 0.840919 17.7451 0.875499C17.6607 0.910079 17.5842 0.961679 17.5205 1.02709L0.195547 18.9991C0.133709 19.0622 0.0849519 19.1369 0.0520738 19.219C0.0191956 19.301 0.00284465 19.3887 0.00395967 19.4771C0.00507468 19.5654 0.0236337 19.6527 0.0585712 19.7339C0.0935086 19.8151 0.144136 19.8885 0.207547 19.9501C0.341985 20.0711 0.517737 20.1359 0.698547 20.1311C0.874719 20.1278 1.0425 20.0552 1.16555 19.9291L3.41855 17.5931V32.5041C3.42092 32.6836 3.49395 32.8549 3.62181 32.9809C3.74967 33.1069 3.92204 33.1774 4.10155 33.1771H13.6025C13.6908 33.1771 13.7782 33.1597 13.8598 33.1258C13.9413 33.092 14.0154 33.0424 14.0777 32.9798C14.1401 32.9173 14.1894 32.8431 14.223 32.7615C14.2566 32.6798 14.2738 32.5924 14.2735 32.5041V22.0501H21.7265V32.5061C21.7289 32.6856 21.802 32.8569 21.9298 32.9829C22.0577 33.1089 22.23 33.1794 22.4095 33.1791H31.9105C32.09 33.1794 32.2624 33.1089 32.3903 32.9829C32.5181 32.8569 32.5912 32.6856 32.5935 32.5061V17.5921L34.8345 19.9221C34.9612 20.0508 35.133 20.125 35.3135 20.1291H35.3255C35.4574 20.1307 35.5867 20.0933 35.6973 20.0217C35.808 19.95 35.895 19.8473 35.9474 19.7263C35.9999 19.6054 36.0155 19.4717 35.9922 19.3419C35.9689 19.2122 35.9078 19.0922 35.8165 18.9971V18.9971H35.8155ZM22.4085 20.7031H13.6025C13.5145 20.703 13.4272 20.7202 13.3458 20.7538C13.2644 20.7874 13.1905 20.8367 13.1281 20.899C13.0658 20.9612 13.0164 21.0351 12.9826 21.1165C12.9489 21.1978 12.9315 21.285 12.9315 21.3731V31.8331H4.77255V16.1871L18.0005 2.45609L31.2405 16.1871V31.8331H23.0815V21.3731C23.0813 21.1953 23.0105 21.0249 22.8847 20.8993C22.7589 20.7736 22.5883 20.7031 22.4105 20.7031V20.7031H22.4085Z"/>
				</g>
			</g>
		</symbol>
		<symbol id="one" viewBox="0 0 8 24">
			<g fill-rule="evenodd">
				<g>
					<path d="M6.96705 0.0100593C6.67505 -0.0419407 6.38705 0.122059 6.28305 0.402059C5.17605 3.38706 3.41105 5.41106 0.883047 6.58906C0.576047 6.73306 0.443047 7.09806 0.586047 7.40806C0.727047 7.71606 1.09205 7.85006 1.40005 7.70706C3.45205 6.75006 5.05205 5.30806 6.24505 3.33106V23.3841C6.24505 23.7241 6.51905 24.0001 6.85905 24.0001C7.19805 24.0001 7.47105 23.7241 7.47105 23.3841V0.616059C7.47105 0.319059 7.25905 0.0630593 6.96705 0.0100593Z"/>
				</g>
			</g>
		</symbol>
		<symbol id="two" viewBox="0 0 24 24">
			<g fill-rule="evenodd">
				<g>
					<path d="M17.9021 22.769H6.73606C6.77306 22.406 6.85406 22.052 6.97806 21.708C7.30406 20.785 7.83706 19.858 8.56106 18.953C9.30506 18.023 10.4051 16.925 11.8281 15.691C14.1511 13.671 15.6841 12.105 16.5171 10.903C16.5191 10.9 16.5201 10.899 16.5211 10.897C17.0111 10.212 17.3861 9.545 17.6421 8.905C18.0101 7.982 18.1971 7.029 18.1971 6.071C18.1971 3.956 17.2561 2.48 16.6951 1.788C15.4101 0.204 13.4421 0 11.8721 0C10.1801 0 8.91606 0.473 7.77406 1.533C6.61106 2.611 5.94906 3.931 5.55806 5.945C5.49306 6.279 5.71106 6.602 6.04506 6.667C6.37806 6.731 6.70106 6.513 6.76606 6.179C7.10706 4.419 7.64106 3.334 8.61006 2.435C9.52006 1.592 10.4951 1.232 11.8721 1.232C13.8251 1.232 14.9831 1.63 15.7401 2.565C16.1981 3.129 16.9671 4.337 16.9671 6.071C16.9671 6.872 16.8101 7.672 16.5001 8.447C16.2801 8.998 15.9511 9.58 15.5181 10.184L14.8891 10.992C14.8791 11.003 14.8701 11.016 14.8621 11.029C14.0121 12.029 12.7261 13.28 11.0221 14.761C9.54306 16.043 8.39306 17.195 7.60106 18.183C6.78906 19.195 6.18906 20.244 5.82006 21.293C5.58406 21.949 5.47006 22.639 5.48406 23.347C5.48306 23.36 5.48306 23.372 5.48306 23.385C5.48306 23.725 5.75906 24 6.09806 24H17.9021C18.2411 24 18.5171 23.725 18.5171 23.385C18.5171 23.045 18.2411 22.769 17.9021 22.769Z"/>
				</g>
			</g>
		</symbol>
		<symbol id="three" viewBox="0 0 24 24">
			<g fill-rule="evenodd">
				<g>
					<path d="M17.1189 12.441C16.4589 11.829 15.6709 11.372 14.7749 11.077C16.7229 9.994 18.0319 8.002 18.0319 5.73C18.0379 4.172 17.4689 2.739 16.4309 1.695C15.3429 0.602 13.8239 0 12.1539 0C8.64388 0 6.12088 2.113 5.72388 5.385C5.68188 5.722 5.92288 6.029 6.26088 6.071C6.59788 6.111 6.90388 5.871 6.94488 5.534C7.26688 2.879 9.26288 1.231 12.1539 1.231C13.4939 1.231 14.7029 1.704 15.5589 2.565C16.3769 3.386 16.8059 4.48 16.8009 5.728C16.8009 8.301 14.6779 10.425 11.9649 10.685C11.7639 10.69 11.5609 10.699 11.3549 10.715C11.0249 10.739 10.7739 11.02 10.7859 11.351C10.7979 11.682 11.0699 11.945 11.4009 11.945C11.6119 11.945 11.8229 11.935 12.0299 11.917C13.7849 11.896 15.2459 12.382 16.2819 13.344C17.2849 14.277 17.8369 15.641 17.8369 17.191C17.8519 18.654 17.3049 20.022 16.2939 21.043C15.1949 22.155 13.6259 22.768 11.8749 22.768C8.85188 22.768 6.16288 20.061 6.16288 17.927C6.16288 17.587 5.88788 17.311 5.54688 17.311C5.20688 17.311 4.93188 17.587 4.93188 17.927C4.93188 20.661 8.13588 24 11.8749 24C13.9569 24 15.8379 23.257 17.1689 21.911C18.4119 20.653 19.0869 18.972 19.0679 17.185C19.0679 15.294 18.3759 13.609 17.1189 12.441Z"/>
				</g>
			</g>
		</symbol>
		<symbol id="four" viewBox="0 0 24 24">
			<g fill-rule="evenodd">
				<g>
					<path d="M18.1751 15.088H16.5121V9.66104C16.5121 9.32304 16.2391 9.04804 15.9011 9.04804C15.5641 9.04804 15.2901 9.32304 15.2901 9.66104V15.088H6.79411L13.5511 0.877035C13.6951 0.572035 13.5671 0.206035 13.2621 0.0610352C12.9571 -0.0859648 12.5931 0.0440352 12.4481 0.350035L5.27411 15.437C5.27211 15.441 5.27211 15.445 5.26911 15.449C5.26011 15.469 5.25311 15.491 5.24611 15.513C5.24011 15.53 5.23411 15.548 5.23011 15.566C5.22711 15.583 5.22411 15.602 5.22211 15.62C5.22011 15.643 5.21511 15.666 5.21511 15.688C5.21511 15.692 5.21411 15.697 5.21411 15.7C5.21411 15.714 5.21711 15.727 5.21711 15.741C5.22011 15.764 5.22111 15.786 5.22411 15.807C5.22811 15.827 5.23411 15.845 5.23911 15.865C5.24411 15.883 5.25011 15.903 5.25711 15.921C5.26311 15.941 5.27311 15.958 5.28211 15.976C5.29111 15.994 5.29911 16.011 5.30911 16.027C5.32011 16.044 5.33211 16.059 5.34411 16.074C5.35511 16.09 5.36811 16.106 5.38211 16.12C5.39611 16.135 5.41111 16.148 5.42611 16.161C5.44111 16.174 5.45411 16.187 5.47011 16.198C5.48911 16.211 5.50811 16.222 5.52911 16.234C5.54111 16.24 5.55011 16.248 5.56211 16.253C5.56711 16.256 5.57311 16.258 5.57811 16.26C5.58511 16.264 5.59211 16.266 5.59911 16.27C5.63311 16.282 5.66511 16.293 5.69911 16.301C5.70311 16.301 5.70511 16.302 5.71011 16.302C5.74711 16.31 5.78711 16.313 5.82511 16.313C5.82611 16.313 5.82611 16.313 5.82711 16.313H15.2901V23.386C15.2901 23.725 15.5641 24 15.9011 24C16.2391 24 16.5121 23.725 16.5121 23.386V16.313H18.1751C18.5111 16.313 18.7851 16.04 18.7851 15.7C18.7851 15.362 18.5111 15.088 18.1751 15.088Z"/>
				</g>
			</g>
		</symbol>
		<symbol id="five" viewBox="0 0 24 24">
			<g fill-rule="evenodd">
				<g>
					<path d="M19.241 14.938C19.106 12.658 18.26 10.805 16.724 9.428C15.187 8.05 13.34 7.414 11.235 7.54C9.96098 7.614 8.36998 8.261 7.11198 9.002L8.02698 1.232H17.36C17.699 1.232 17.975 0.956 17.975 0.616C17.975 0.276 17.699 0 17.36 0H7.47998C7.16798 0 6.90598 0.234 6.86898 0.544L5.73398 10.191C5.70498 10.438 5.82698 10.679 6.04498 10.801C6.26098 10.922 6.52998 10.901 6.72498 10.747C8.01298 9.73 10.068 8.843 11.307 8.769C13.098 8.664 14.601 9.179 15.903 10.346C17.207 11.515 17.896 13.04 18.013 15.01C18.123 16.877 17.672 18.541 16.669 19.96C15.454 21.698 13.746 22.613 11.445 22.755C9.47498 22.877 8.27998 22.08 7.82998 21.78C7.81198 21.769 6.06598 20.586 5.96998 18.956C5.94898 18.616 5.65898 18.358 5.31898 18.378C4.97998 18.397 4.72198 18.689 4.74098 19.029C4.87398 21.265 7.05598 22.743 7.14798 22.805C7.60798 23.112 8.93898 24 11.047 24C11.201 24 11.359 23.995 11.521 23.985C14.182 23.82 16.253 22.704 17.675 20.67C18.841 19.019 19.368 17.091 19.241 14.938Z"/>
				</g>
			</g>
		</symbol>
		<symbol id="six" viewBox="0 0 14 24">
			<g fill-rule="evenodd">
				<g>
					<path d="M12.1629 10.704C10.9349 9.25705 9.21989 8.52205 7.06889 8.52205C5.00489 8.52205 3.29589 9.24305 1.99089 10.665C1.79789 10.874 1.62189 11.091 1.45789 11.312C1.80889 7.96205 2.79789 4.48105 5.19889 2.60305C6.98889 1.20105 9.4219 0.869045 12.4299 1.61405C12.7579 1.69605 13.0889 1.49605 13.1719 1.16805C13.2529 0.839045 13.0519 0.507045 12.7239 0.425045C9.3309 -0.415955 6.54589 -0.00795472 4.44389 1.63705C0.826895 4.46705 0.0668945 10.282 0.0668945 14.661V15.311C0.0668945 15.329 0.0718946 15.346 0.0728946 15.363C0.0708946 15.444 0.0668945 15.524 0.0668945 15.605C0.0668945 17.842 0.682894 19.793 1.89789 21.4C3.19889 23.125 4.95289 24 7.10989 24C9.15789 24 10.8399 23.234 12.1079 21.724C13.3179 20.282 13.9319 18.457 13.9319 16.301C13.9319 13.971 13.3379 12.088 12.1629 10.704ZM11.1709 20.935C10.1449 22.156 8.77889 22.775 7.10989 22.775C5.35789 22.775 3.93289 22.064 2.87489 20.662C1.82489 19.271 1.29289 17.57 1.29289 15.605C1.29289 14.033 1.83089 12.65 2.89189 11.494C3.95689 10.335 5.36189 9.74705 7.06889 9.74705C8.84489 9.74705 10.2449 10.336 11.2289 11.497C12.2099 12.653 12.7069 14.27 12.7069 16.301C12.7069 18.161 12.1899 19.72 11.1709 20.935Z"/>
				</g>
			</g>
		</symbol>
	</defs>
</svg>
